<?xml version="1.0" standalone="no"?>
<!DOCTYPE svg PUBLIC "-//W3C//DTD SVG 20010904//EN"
 "http://www.w3.org/TR/2001/REC-SVG-20010904/DTD/svg10.dtd">
<svg version="1.0" xmlns="http://www.w3.org/2000/svg"
 width="461.000000pt" height="180.000000pt" viewBox="0 0 461.000000 180.000000"
 preserveAspectRatio="xMidYMid meet">

<g transform="translate(0.000000,180.000000) scale(0.100000,-0.100000)"
fill="#000000" stroke="none">
<path d="M0 900 l0 -900 605 0 c590 0 605 0 605 19 0 16 13 22 72 36 39 9 88
18 107 20 20 2 74 9 121 15 139 16 238 14 545 -15 22 -2 166 -7 320 -11 241
-5 313 -3 520 15 224 20 265 26 370 52 111 29 185 88 155 124 -7 8 -8 15 -2
15 5 0 13 -7 16 -16 23 -60 -31 -104 -176 -144 -230 -62 -794 -88 -1180 -54
-215 20 -520 22 -633 5 -112 -16 -215 -41 -215 -52 0 -5 706 -9 1690 -9 l1690
0 0 900 0 900 -945 0 c-824 0 -945 -2 -945 -15 0 -9 -6 -12 -16 -8 -10 4 -22
0 -28 -9 -6 -8 -18 -17 -26 -21 -10 -4 -8 -6 8 -6 13 -1 22 5 22 14 0 8 5 15
10 15 7 0 7 -6 0 -20 -6 -11 -16 -20 -23 -20 -8 0 -8 -3 1 -9 11 -7 10 -10 -3
-15 -23 -9 -25 -8 -19 9 4 8 1 15 -5 15 -6 0 -10 11 -9 25 1 14 8 25 15 25 7
0 13 5 13 10 0 7 -450 10 -1330 10 l-1330 0 0 -900z m3040 846 c0 -2 -8 -10
-17 -17 -16 -13 -17 -12 -4 4 13 16 21 21 21 13z m-450 -61 c0 -8 -4 -15 -10
-15 -5 0 -7 7 -4 15 4 8 8 15 10 15 2 0 4 -7 4 -15z m97 -15 c2 -11 -1 -20 -6
-20 -10 0 -21 36 -13 44 8 8 15 -1 19 -24z m423 6 c0 -2 -8 -10 -17 -17 -16
-13 -17 -12 -4 4 13 16 21 21 21 13z m-500 -31 c0 -8 5 -15 10 -15 6 0 10 -6
10 -14 0 -7 7 -19 15 -26 9 -7 14 -19 11 -26 -2 -6 5 -14 16 -17 11 -3 17 -10
13 -16 -3 -6 1 -11 9 -11 11 0 16 -9 16 -30 0 -16 4 -30 10 -30 5 0 6 8 3 17
-5 12 -2 15 10 10 8 -3 21 1 27 9 18 20 26 18 78 -22 l47 -36 3 34 c5 52 20
55 17 3 -1 -25 2 -48 7 -51 4 -3 8 11 8 30 0 20 4 36 10 36 5 0 8 -13 6 -30
-2 -16 1 -30 5 -30 5 0 9 7 9 15 0 8 5 15 11 15 6 0 9 -7 5 -15 -3 -8 -1 -15
4 -15 6 0 10 7 10 15 0 8 7 15 15 15 8 0 15 7 15 15 0 8 8 15 18 15 9 0 34 3
55 6 24 5 37 3 37 -5 0 -6 -3 -10 -7 -10 -32 5 -63 -3 -63 -16 0 -8 -7 -15
-15 -15 -8 0 -15 -6 -15 -14 0 -8 -8 -17 -17 -19 -14 -4 -12 -5 5 -6 13 -1 22
5 22 14 0 8 7 15 15 15 8 0 15 7 15 15 0 10 9 15 28 14 23 -2 24 -2 5 -6 -13
-2 -23 -9 -23 -14 0 -6 5 -7 10 -4 17 11 11 -5 -11 -28 -18 -18 -21 -19 -16
-4 4 11 3 16 -3 12 -6 -3 -10 -15 -10 -26 0 -14 -7 -19 -26 -19 -14 0 -22 4
-19 10 4 6 -1 7 -11 3 -11 -4 -22 1 -31 13 -11 15 -16 16 -31 6 -9 -7 -25 -15
-34 -18 -13 -5 -18 -17 -18 -40 0 -19 -4 -34 -8 -34 -5 0 -8 16 -7 35 0 20 -3
41 -7 48 -6 9 -8 9 -8 0 0 -7 -5 -13 -11 -13 -5 0 -8 4 -4 9 3 5 1 12 -5 16
-6 4 -10 -13 -10 -46 0 -51 0 -51 -22 -36 -13 8 -24 24 -24 36 -1 11 -2 32 -3
46 0 14 -6 25 -12 25 -5 0 -7 -4 -4 -10 4 -6 -5 -10 -19 -10 -16 0 -26 6 -26
15 0 8 -7 15 -15 15 -8 0 -15 7 -15 15 0 10 -10 15 -27 16 -16 0 -37 5 -48 10
-16 7 -14 9 13 6 18 -2 35 0 38 5 3 4 -10 8 -28 8 -18 0 -40 5 -48 11 -11 7
-7 9 18 5 17 -2 32 0 32 5 0 5 -15 10 -32 11 -28 1 -27 2 12 8 30 5 37 8 20
10 -14 1 -30 2 -37 1 -6 -1 -15 4 -19 10 -5 8 5 10 35 7 22 -2 41 0 41 4 0 5
-19 8 -42 8 -43 0 -47 7 -8 15 36 7 38 18 3 13 -18 -2 -33 -1 -33 4 0 4 10 9
23 9 21 2 21 2 -2 6 -19 4 -21 7 -10 14 21 13 39 11 39 -6z m100 -15 c0 -5 -4
-10 -10 -10 -5 0 -10 5 -10 10 0 6 5 10 10 10 6 0 10 -4 10 -10z m412 -25 c21
0 17 -15 -5 -15 -18 0 -27 5 -27 16 0 10 4 12 13 7 6 -4 15 -8 19 -8z m-387
-5 c3 -5 1 -10 -4 -10 -6 0 -11 5 -11 10 0 6 2 10 4 10 3 0 8 -4 11 -10z m35
-30 c0 -5 -4 -10 -10 -10 -5 0 -10 5 -10 10 0 6 5 10 10 10 6 0 10 -4 10 -10z
m365 0 c-3 -5 -19 -10 -35 -10 -16 0 -32 5 -35 10 -4 6 10 10 35 10 25 0 39
-4 35 -10z m-330 -30 c3 -5 -1 -10 -10 -10 -9 0 -13 5 -10 10 3 6 8 10 10 10
2 0 7 -4 10 -10z m195 0 c0 -5 -5 -10 -11 -10 -5 0 -7 5 -4 10 3 6 8 10 11 10
2 0 4 -4 4 -10z m118 3 c-10 -2 -18 -9 -18 -14 0 -6 5 -7 10 -4 6 3 10 1 10
-4 0 -6 -15 -11 -32 -12 -18 0 -43 -2 -55 -5 -13 -2 -23 1 -23 6 0 6 14 10 30
10 17 0 30 4 30 9 0 4 -13 7 -30 5 -16 -2 -30 1 -30 6 0 6 28 9 63 9 34 -1 54
-3 45 -6z m-278 -39 c0 -8 -4 -12 -10 -9 -5 3 -10 10 -10 16 0 5 5 9 10 9 6 0
10 -7 10 -16z m35 6 c3 -5 -1 -10 -10 -10 -9 0 -13 5 -10 10 3 6 8 10 10 10 2
0 7 -4 10 -10z m65 0 c0 -5 -5 -10 -11 -10 -5 0 -7 5 -4 10 3 6 8 10 11 10 2
0 4 -4 4 -10z m60 -2 c0 -4 -12 -8 -26 -8 -14 0 -23 4 -20 8 2 4 14 8 25 8 12
0 21 -4 21 -8z m0 -29 c0 -5 -11 -9 -25 -9 -14 0 -25 4 -25 9 0 5 11 9 25 9
14 0 25 -4 25 -9z m-340 -25 c0 -8 7 -14 15 -14 8 0 15 -7 15 -15 0 -10 10
-15 30 -15 23 0 30 -4 30 -20 0 -11 -4 -20 -10 -20 -5 0 -7 7 -4 15 4 8 1 15
-6 15 -8 0 -10 -9 -6 -25 4 -14 2 -25 -4 -25 -5 0 -10 11 -10 25 0 14 -5 25
-11 25 -5 0 -7 -4 -4 -10 3 -5 1 -10 -4 -10 -6 0 -11 5 -11 10 0 6 -7 10 -16
10 -8 0 -13 -4 -10 -8 3 -5 -8 -22 -24 -37 -17 -16 -30 -33 -30 -38 0 -5 12 5
26 22 30 36 50 38 83 10 l24 -20 -32 -27 c-24 -20 -30 -32 -25 -45 3 -10 13
-16 20 -13 33 13 8 -15 -83 -91 -54 -45 -108 -91 -119 -102 -12 -11 -25 -17
-28 -14 -11 11 -6 -15 8 -54 54 -139 136 -385 132 -391 -3 -5 -38 -8 -78 -8
-69 1 -73 2 -86 29 -12 26 -16 27 -85 27 -71 0 -73 -1 -84 -29 l-11 -30 -78 3
c-44 2 -80 4 -81 5 -1 0 11 40 28 88 16 48 29 88 29 90 0 3 -102 -78 -124 -97
-5 -5 1 -22 14 -40 12 -17 20 -34 17 -37 -4 -4 -126 -6 -175 -3 -4 0 -21 25
-37 55 l-30 55 -5 -57 -5 -58 -75 0 -75 0 -3 248 -2 247 112 0 c133 0 175 -10
219 -51 l33 -31 228 233 c125 129 227 228 228 222 0 -7 -90 -104 -199 -215
-271 -276 -270 -276 14 -13 83 77 162 151 177 163 l26 24 35 -38 34 -38 41 35
c48 39 51 51 20 68 l-23 12 23 -5 c12 -2 20 0 16 5 -3 5 -14 9 -25 9 -10 0
-19 4 -19 8 0 5 14 7 30 4 17 -2 30 -10 30 -18z m220 22 c0 -11 -19 -15 -25
-6 -3 5 1 10 9 10 9 0 16 -2 16 -4z m-41 -128 c0 -28 -2 -30 -9 -13 -12 28
-12 45 0 45 6 0 10 -15 9 -32z m61 2 c0 -16 -5 -30 -10 -30 -6 0 -9 12 -6 28
5 33 5 32 11 32 3 0 5 -13 5 -30z m30 -4 c0 -8 -4 -18 -10 -21 -5 -3 -10 3
-10 14 0 12 5 21 10 21 6 0 10 -6 10 -14z m25 -6 c3 -5 1 -10 -4 -10 -6 0 -11
5 -11 10 0 6 2 10 4 10 3 0 8 -4 11 -10z m54 -285 c57 -31 94 -76 115 -139 20
-58 20 -99 2 -160 -19 -64 -57 -111 -119 -146 -45 -26 -62 -30 -125 -30 -119
0 -207 58 -247 164 -26 67 -17 162 22 224 30 49 111 107 162 116 56 9 143 -4
190 -29z m-2139 -15 l6 -35 13 38 13 37 89 0 c49 0 89 -2 89 -4 0 -2 -27 -50
-61 -107 -34 -56 -63 -108 -65 -114 -3 -6 25 -67 61 -135 36 -67 64 -124 63
-125 -2 -2 -39 -5 -83 -7 l-80 -3 -20 42 c-28 59 -33 60 -28 8 3 -25 4 -45 2
-45 -2 -1 -39 -3 -81 -7 l-78 -5 0 251 0 252 78 -3 77 -3 5 -35z m598 -17 c40
-113 141 -408 144 -421 2 -9 -18 -14 -75 -17 l-79 -5 -11 31 -12 30 -75 -3
c-69 -3 -75 -5 -78 -25 -2 -13 -6 -24 -10 -24 -26 -6 -141 -6 -150 0 -8 5 14
82 71 249 l82 242 86 0 86 0 21 -57z m1893 15 l0 -43 19 43 19 42 86 0 c47 0
85 -2 85 -5 0 -3 -11 -23 -25 -45 -14 -22 -25 -42 -25 -44 0 -2 -18 -36 -41
-75 -28 -49 -38 -75 -32 -84 6 -6 34 -57 63 -112 29 -55 57 -106 62 -112 12
-15 15 -14 -91 -17 l-74 -1 -23 49 -23 49 -3 -49 -3 -49 -75 0 -75 0 -3 248
-2 247 80 0 80 0 1 -42z m559 -23 l0 -65 -70 0 c-68 0 -70 -1 -70 -25 0 -24 2
-25 70 -25 l70 0 0 -65 0 -65 -70 0 c-68 0 -70 -1 -70 -25 0 -24 2 -25 70 -25
l71 0 -3 -67 -3 -67 -145 0 -145 -1 -3 248 -3 247 150 0 151 0 0 -65z m-2174
-478 c-63 -82 -86 -204 -50 -255 9 -13 14 -26 11 -29 -12 -11 -47 79 -47 119
1 63 69 198 101 198 6 0 -1 -15 -15 -33z m-67 -267 c10 -14 26 -24 35 -22 9 2
16 -2 16 -8 0 -6 -6 -8 -12 -5 -7 4 -4 0 6 -9 10 -8 23 -13 29 -9 6 3 7 2 4
-4 -19 -31 238 -54 376 -34 45 7 141 21 212 32 337 51 546 80 650 89 130 11
266 5 334 -16 56 -17 64 -17 55 -2 -4 7 -3 8 5 4 6 -4 9 -11 6 -16 -3 -5 -1
-11 5 -15 5 -3 10 -10 10 -15 0 -5 -15 0 -33 10 -94 56 -307 49 -780 -25 -543
-84 -688 -94 -803 -55 -94 33 -155 106 -153 182 1 30 2 28 10 -12 5 -25 17
-56 28 -70z"/>
<path d="M2630 1529 c0 -5 9 -9 20 -9 11 0 20 2 20 4 0 2 -9 6 -20 9 -11 3
-20 1 -20 -4z"/>
<path d="M2680 1500 c0 -5 5 -10 11 -10 5 0 7 5 4 10 -3 6 -8 10 -11 10 -2 0
-4 -4 -4 -10z"/>
<path d="M2680 1470 c0 -5 5 -10 11 -10 5 0 7 5 4 10 -3 6 -8 10 -11 10 -2 0
-4 -4 -4 -10z"/>
<path d="M3020 1470 c0 -5 5 -10 10 -10 6 0 10 5 10 10 0 6 -4 10 -10 10 -5 0
-10 -4 -10 -10z"/>
<path d="M2715 1440 c3 -5 8 -10 11 -10 2 0 4 5 4 10 0 6 -5 10 -11 10 -5 0
-7 -4 -4 -10z"/>
<path d="M2990 1440 c0 -5 5 -10 10 -10 6 0 10 5 10 10 0 6 -4 10 -10 10 -5 0
-10 -4 -10 -10z"/>
<path d="M2778 1390 c5 -65 17 -65 17 0 0 27 -4 50 -10 50 -6 0 -9 -21 -7 -50z"/>
<path d="M2665 1420 c3 -5 8 -10 11 -10 2 0 4 5 4 10 0 6 -5 10 -11 10 -5 0
-7 -4 -4 -10z"/>
<path d="M1723 1029 c-16 -16 -5 -39 17 -39 23 0 32 13 24 34 -7 19 -25 21
-41 5z"/>
<path d="M1797 1034 c-4 -4 -7 -16 -7 -26 0 -14 6 -19 23 -16 14 2 22 10 22
23 0 20 -25 32 -38 19z"/>
<path d="M1864 1026 c-9 -24 4 -48 23 -44 12 2 18 12 18 28 0 29 -32 41 -41
16z"/>
<path d="M2330 1022 c0 -6 -7 -9 -15 -6 -8 4 -15 2 -15 -4 0 -15 32 -24 44
-12 7 7 6 14 -2 22 -9 9 -12 9 -12 0z"/>
<path d="M2367 1024 c-9 -9 21 -36 33 -29 17 10 11 35 -8 35 -10 0 -21 -3 -25
-6z"/>
<path d="M1927 994 c-10 -10 -9 -42 2 -48 18 -11 42 6 39 28 -3 21 -28 33 -41
20z"/>
<path d="M2284 965 c-4 -9 -2 -21 4 -27 15 -15 44 -1 40 19 -4 23 -36 29 -44
8z"/>
<path d="M2384 965 c-8 -20 4 -35 27 -35 14 0 19 7 19 25 0 18 -5 25 -20 25
-11 0 -23 -7 -26 -15z"/>
<path d="M1720 955 c-9 -11 -10 -19 -3 -26 17 -17 48 -6 48 16 0 25 -28 31
-45 10z"/>
<path d="M1820 904 c0 -38 3 -45 16 -40 9 3 20 6 25 6 5 0 14 10 18 23 10 26
-12 57 -41 57 -15 0 -18 -8 -18 -46z"/>
<path d="M1934 919 c-8 -14 21 -43 35 -35 6 4 11 16 11 27 0 21 -34 27 -46 8z"/>
<path d="M2269 915 c-9 -36 7 -61 27 -44 8 6 14 15 14 20 0 9 -39 33 -41 24z"/>
<path d="M2409 904 c-11 -14 -10 -18 6 -30 16 -12 21 -12 34 0 12 12 12 18 1
30 -16 20 -24 20 -41 0z"/>
<path d="M1724 885 c-17 -12 -18 -15 -3 -30 17 -17 49 -11 49 10 0 24 -25 36
-46 20z"/>
<path d="M2037 859 c-4 -15 -23 -41 -42 -58 -35 -30 -35 -31 -19 -56 20 -31
30 -26 13 7 -11 20 -11 22 3 10 14 -11 18 -8 28 25 7 21 17 43 22 50 5 7 8 20
6 30 -3 14 -6 12 -11 -8z"/>
<path d="M2341 838 c-7 -24 -15 -51 -17 -60 -4 -15 1 -18 30 -18 40 0 41 4 24
64 -17 59 -23 62 -37 14z"/>
<path d="M1912 843 c2 -10 12 -18 23 -18 11 0 21 8 23 18 3 13 -3 17 -23 17
-20 0 -26 -4 -23 -17z"/>
<path d="M2246 844 c-16 -15 -16 -18 -2 -33 15 -14 18 -14 33 2 16 15 16 18 2
33 -15 14 -18 14 -33 -2z"/>
<path d="M2430 844 c-11 -12 -11 -18 2 -30 16 -16 48 -9 48 10 0 13 -20 36
-31 36 -4 0 -12 -7 -19 -16z"/>
<path d="M1784 816 c-8 -21 13 -46 32 -39 20 8 13 47 -9 51 -9 2 -20 -4 -23
-12z"/>
<path d="M1861 816 c-16 -19 -6 -36 20 -36 15 0 20 6 17 22 -4 27 -21 33 -37
14z"/>
<path d="M1715 810 c-8 -13 13 -40 30 -40 15 0 28 27 19 41 -7 12 -41 11 -49
-1z"/>
<path d="M2213 775 c-7 -19 13 -36 37 -32 8 1 15 11 15 22 0 26 -42 34 -52 10z"/>
<path d="M2447 777 c-3 -8 -2 -20 3 -26 11 -19 52 -4 48 17 -4 21 -44 28 -51
9z"/>
<path d="M1717 737 c-8 -21 8 -39 29 -35 27 5 25 42 -2 46 -12 2 -24 -3 -27
-11z"/>
<path d="M1884 735 c-4 -9 -2 -21 4 -27 15 -15 44 -1 40 19 -4 23 -36 29 -44
8z"/>
<path d="M2194 715 c-8 -19 3 -35 26 -35 22 0 33 23 17 39 -15 15 -37 14 -43
-4z"/>
<path d="M2267 724 c-12 -12 -8 -42 6 -47 21 -8 39 8 35 29 -3 19 -29 30 -41
18z"/>
<path d="M2334 716 c-8 -21 13 -46 32 -39 20 8 13 47 -9 51 -9 2 -20 -4 -23
-12z"/>
<path d="M2404 715 c-9 -22 22 -53 37 -38 15 15 7 47 -14 51 -9 2 -20 -4 -23
-13z"/>
<path d="M2470 705 c0 -22 4 -26 23 -23 14 2 22 10 22 23 0 13 -8 21 -22 23
-19 3 -23 -1 -23 -23z"/>
<path d="M1716 664 c-4 -10 -2 -22 3 -27 15 -15 46 -3 46 18 0 26 -40 33 -49
9z"/>
<path d="M1927 673 c-15 -14 -7 -43 12 -43 26 0 36 17 21 35 -14 16 -23 19
-33 8z"/>
<path d="M2177 664 c-12 -12 -8 -42 6 -47 21 -8 39 8 35 29 -3 19 -29 30 -41
18z"/>
<path d="M2497 664 c-12 -12 -8 -42 6 -47 21 -8 39 8 35 29 -3 19 -29 30 -41
18z"/>
<path d="M2854 1025 c-8 -19 3 -35 25 -35 18 0 35 33 23 44 -11 12 -43 6 -48
-9z"/>
<path d="M2791 1020 c-19 -11 -9 -45 14 -45 13 0 21 8 23 21 3 23 -17 37 -37
24z"/>
<path d="M2942 1021 c-19 -11 -11 -45 11 -49 9 -2 20 4 23 13 9 21 -16 47 -34
36z"/>
<path d="M2724 976 c-9 -24 4 -48 23 -44 12 2 18 12 18 28 0 29 -32 41 -41 16z"/>
<path d="M2997 983 c-11 -10 -8 -41 4 -49 6 -3 18 1 27 9 13 13 13 19 2 31
-14 17 -23 20 -33 9z"/>
<path d="M2806 915 c-32 -30 -38 -87 -15 -147 22 -55 123 -63 167 -13 25 29
30 96 11 138 -23 52 -117 64 -163 22z"/>
<path d="M2689 914 c-11 -14 -10 -18 6 -30 16 -12 21 -12 34 0 12 12 12 18 1
30 -16 20 -24 20 -41 0z"/>
<path d="M3033 923 c-17 -6 -16 -28 1 -42 20 -17 52 15 35 35 -12 15 -16 16
-36 7z"/>
<path d="M2681 851 c-19 -12 -6 -41 19 -41 16 0 21 5 18 22 -3 25 -17 32 -37
19z"/>
<path d="M3040 845 c-15 -18 -5 -35 20 -35 10 0 22 5 25 10 7 11 -12 40 -25
40 -4 0 -13 -7 -20 -15z"/>
<path d="M2686 773 c-5 -11 0 -22 11 -31 15 -11 20 -10 30 4 9 13 10 21 2 31
-16 18 -36 16 -43 -4z"/>
<path d="M3026 773 c-10 -26 23 -48 43 -29 12 12 12 18 1 30 -17 21 -36 20
-44 -1z"/>
<path d="M2727 724 c-12 -12 -8 -42 6 -47 21 -8 39 8 35 29 -3 19 -29 30 -41
18z"/>
<path d="M2997 723 c-12 -12 -7 -41 7 -46 19 -7 40 18 32 38 -6 15 -28 20 -39
8z"/>
<path d="M2784 675 c-4 -9 -2 -21 4 -27 15 -15 44 -1 40 19 -4 23 -36 29 -44
8z"/>
<path d="M2931 676 c-9 -11 -8 -18 5 -31 15 -15 19 -15 32 -1 17 17 10 46 -11
46 -8 0 -20 -6 -26 -14z"/>
<path d="M2854 655 c-8 -19 3 -35 26 -35 19 0 34 25 24 41 -8 14 -44 10 -50
-6z"/>
<path d="M951 1037 c-8 -10 -7 -19 4 -33 13 -18 15 -18 31 -2 14 14 15 20 4
32 -15 19 -24 20 -39 3z"/>
<path d="M764 1026 c-8 -21 3 -36 27 -36 15 0 20 6 17 22 -4 27 -35 37 -44 14z"/>
<path d="M910 974 c-11 -12 -10 -18 3 -32 16 -15 18 -15 34 0 13 14 14 20 3
32 -7 9 -16 16 -20 16 -4 0 -13 -7 -20 -16z"/>
<path d="M767 964 c-4 -4 -7 -16 -7 -26 0 -13 7 -18 26 -18 21 0 25 4 22 22
-3 23 -27 35 -41 22z"/>
<path d="M871 912 c-11 -20 2 -42 25 -42 18 0 26 30 13 46 -16 19 -26 18 -38
-4z"/>
<path d="M773 893 c-18 -7 -16 -40 3 -47 21 -8 34 1 34 24 0 19 -17 30 -37 23z"/>
<path d="M832 838 c2 -15 10 -23 23 -23 13 0 21 8 23 23 3 18 -1 22 -23 22
-22 0 -26 -4 -23 -22z"/>
<path d="M771 820 c-19 -11 -9 -45 14 -45 13 0 21 8 23 21 3 23 -17 37 -37 24z"/>
<path d="M877 794 c-4 -4 -7 -16 -7 -26 0 -13 7 -18 26 -18 21 0 25 4 22 22
-3 23 -27 35 -41 22z"/>
<path d="M763 734 c-3 -8 -1 -20 5 -26 16 -16 42 -2 42 22 0 24 -38 28 -47 4z"/>
<path d="M914 725 c-9 -23 4 -47 23 -43 22 4 30 38 11 49 -19 13 -28 11 -34
-6z"/>
<path d="M764 665 c-8 -20 4 -35 27 -35 14 0 19 7 19 25 0 18 -5 25 -20 25
-11 0 -23 -7 -26 -15z"/>
<path d="M944 655 c-8 -19 3 -35 26 -35 19 0 34 25 24 41 -8 14 -44 10 -50 -6z"/>
<path d="M1304 1025 c-8 -20 4 -35 27 -35 14 0 19 7 19 25 0 18 -5 25 -20 25
-11 0 -23 -7 -26 -15z"/>
<path d="M1374 1025 c-4 -9 -2 -21 4 -27 15 -15 44 -1 40 19 -4 23 -36 29 -44
8z"/>
<path d="M1284 965 c-8 -20 4 -35 27 -35 24 0 37 29 18 41 -21 13 -39 11 -45
-6z"/>
<path d="M1397 974 c-4 -4 -7 -16 -7 -26 0 -14 6 -19 23 -16 14 2 22 10 22 23
0 20 -25 32 -38 19z"/>
<path d="M1266 903 c-4 -9 -1 -23 7 -30 11 -11 16 -11 32 1 16 12 17 16 6 30
-17 21 -37 20 -45 -1z"/>
<path d="M1417 914 c-12 -12 -8 -42 6 -47 21 -8 39 8 35 29 -3 19 -29 30 -41
18z"/>
<path d="M1352 859 c-6 -15 -14 -43 -17 -63 -7 -36 -7 -36 29 -36 35 0 36 1
30 28 -4 15 -13 43 -19 62 l-13 35 -10 -26z"/>
<path d="M1252 848 c-17 -17 -15 -35 5 -42 21 -8 36 6 31 30 -4 22 -20 28 -36
12z"/>
<path d="M1441 850 c-19 -11 -9 -45 14 -45 13 0 21 8 23 21 3 23 -17 37 -37
24z"/>
<path d="M1223 774 c-3 -8 -1 -20 5 -26 16 -16 42 -2 42 22 0 24 -38 28 -47 4z"/>
<path d="M1457 783 c-12 -11 -7 -33 8 -39 20 -8 45 13 38 32 -5 14 -34 19 -46
7z"/>
<path d="M1202 708 c4 -30 43 -33 43 -3 0 13 -8 21 -23 23 -20 3 -23 0 -20
-20z"/>
<path d="M1271 717 c-8 -10 -7 -19 4 -33 13 -18 15 -18 31 -2 18 18 13 48 -9
48 -8 0 -20 -6 -26 -13z"/>
<path d="M1340 714 c-11 -12 -10 -18 3 -32 16 -15 18 -15 33 0 19 18 12 48 -9
48 -8 0 -20 -7 -27 -16z"/>
<path d="M1411 716 c-9 -11 -8 -17 4 -30 20 -20 47 -9 43 18 -4 25 -30 32 -47
12z"/>
<path d="M1474 715 c-8 -19 3 -35 26 -35 19 0 30 17 23 38 -6 17 -42 15 -49
-3z"/>
<path d="M1187 663 c-12 -12 -7 -41 7 -46 19 -7 40 18 32 38 -6 15 -28 20 -39
8z"/>
<path d="M1500 654 c-11 -12 -11 -18 1 -30 20 -19 53 3 43 29 -8 21 -27 22
-44 1z"/>
<path d="M3444 1035 c-9 -23 4 -47 23 -43 26 5 28 35 3 48 -16 9 -21 8 -26 -5z"/>
<path d="M3256 1024 c-8 -21 1 -34 24 -34 19 0 30 17 23 38 -7 17 -40 15 -47
-4z"/>
<path d="M3402 958 c2 -15 10 -23 23 -23 30 0 27 39 -3 43 -20 3 -23 0 -20
-20z"/>
<path d="M3260 954 c-11 -12 -11 -18 1 -30 13 -12 18 -12 34 0 16 12 17 16 6
30 -17 20 -25 20 -41 0z"/>
<path d="M3371 920 c-19 -11 -9 -45 14 -45 13 0 21 8 23 21 3 23 -17 37 -37
24z"/>
<path d="M3265 886 c-19 -14 -19 -16 -2 -33 16 -16 18 -16 34 0 15 15 16 19 2
32 -13 13 -17 13 -34 1z"/>
<path d="M3327 853 c-24 -23 12 -55 38 -33 12 10 13 16 4 26 -12 15 -31 18
-42 7z"/>
<path d="M3256 811 c-9 -14 4 -41 19 -41 17 0 38 27 30 40 -8 12 -42 13 -49 1z"/>
<path d="M3366 784 c-8 -21 1 -34 24 -34 10 0 21 4 24 9 10 16 -5 41 -24 41
-10 0 -21 -7 -24 -16z"/>
<path d="M3254 735 c-4 -9 -2 -21 4 -27 16 -16 47 -5 47 17 0 26 -42 34 -51
10z"/>
<path d="M3412 731 c-20 -12 -10 -46 13 -46 14 0 20 7 20 24 0 27 -13 35 -33
22z"/>
<path d="M3254 665 c-8 -20 4 -35 26 -35 23 0 32 13 24 34 -8 20 -43 21 -50 1z"/>
<path d="M3436 661 c-10 -16 5 -41 24 -41 19 0 34 25 24 41 -3 5 -14 9 -24 9
-10 0 -21 -4 -24 -9z"/>
<path d="M3683 1029 c-16 -16 -5 -39 17 -39 23 0 32 13 24 34 -7 19 -25 21
-41 5z"/>
<path d="M3757 1034 c-4 -4 -7 -16 -7 -26 0 -14 6 -19 23 -16 14 2 22 10 22
23 0 20 -25 32 -38 19z"/>
<path d="M3824 1025 c-4 -9 -2 -21 4 -27 15 -15 44 -1 40 19 -4 23 -36 29 -44
8z"/>
<path d="M3680 955 c-15 -18 -5 -35 21 -35 24 0 37 29 18 41 -19 12 -25 11
-39 -6z"/>
<path d="M3683 885 c-16 -13 -17 -15 -2 -30 19 -19 49 -10 49 15 0 24 -24 32
-47 15z"/>
<path d="M3757 854 c-4 -4 -7 -16 -7 -26 0 -14 6 -19 23 -16 14 2 22 10 22 23
0 20 -25 32 -38 19z"/>
<path d="M3827 854 c-4 -4 -7 -16 -7 -26 0 -14 6 -19 23 -16 14 2 22 10 22 23
0 20 -25 32 -38 19z"/>
<path d="M3684 815 c-17 -12 -18 -15 -3 -30 17 -17 49 -11 49 10 0 24 -25 36
-46 20z"/>
<path d="M3678 738 c-8 -21 2 -38 22 -38 19 0 34 25 24 41 -8 13 -41 11 -46
-3z"/>
<path d="M3677 667 c-8 -21 8 -39 29 -35 27 5 25 42 -2 46 -12 2 -24 -3 -27
-11z"/>
<path d="M3752 668 c-15 -18 1 -41 24 -36 23 4 26 41 3 46 -9 1 -21 -3 -27
-10z"/>
<path d="M3824 665 c-4 -9 -2 -21 4 -27 15 -15 44 -1 40 19 -4 23 -36 29 -44
8z"/>
</g>
</svg>
